<svg viewBox="0 0 32 32" id="alert_circle" xmlns="http://www.w3.org/2000/svg">
  <g transform="translate(3.000000, 3.000000)">
    <path d="M13.0004,-0.0001 C14.7601742,-0.0001 16.4725625,0.350435314 18.059747,1.02180886 C19.6041866,1.67464646 21.0073405,2.62262692 22.1925068,3.80779322 C23.3778492,4.99313563 24.3258234,6.39641227 24.977261,7.93900899 C25.6496263,9.52702965 26.0004,11.2395178 26.0004,12.9999 C26.0004,14.7602822 25.6496263,16.4727703 24.9777211,18.0597026 C24.325863,19.6043697 23.3777429,21.0078622 22.1925068,22.1920068 C21.0073405,23.3771731 19.6041866,24.3251535 18.0599772,24.9778938 C16.4725625,25.6493647 14.7601742,25.9999 13.0004,25.9999 C11.239768,25.9999 9.52736106,25.649417 7.93818046,24.9771974 C7.67198281,24.8640364 7.40880325,24.742174 7.15069133,24.6125781 C6.65712655,24.3647631 6.45790695,23.7637561 6.70572191,23.2701913 C6.95353686,22.7766266 7.55454388,22.577407 8.04810867,22.8252219 C8.26846997,22.9358636 8.49330431,23.0399706 8.71897718,23.1359062 C10.0611045,23.7036213 11.508677,23.9999 13.0004,23.9999 C14.4912434,23.9999 15.9387998,23.7035772 17.281053,23.1358089 C18.5871022,22.5837393 19.7746888,21.7813976 20.778619,20.7774676 C21.782045,19.7749655 22.5841289,18.5876489 23.135539,17.281009 C23.7039189,15.9385855 24.0004,14.4911553 24.0004,12.9999 C24.0004,11.5086447 23.7039189,10.0612145 23.135176,8.71793257 C22.5841856,7.41319447 21.7819713,6.22568489 20.7782932,5.22200678 C19.7746888,4.21840241 18.5871022,3.41606071 17.2808228,2.86389382 C15.9387998,2.29622275 14.4912434,1.9999 13.0004,1.9999 C11.508677,1.9999 10.0611045,2.29617865 8.71874702,2.86399114 C7.41269776,3.41606071 6.22511115,4.21840241 5.22150678,5.22200678 C4.21782867,6.22568489 3.41561444,7.41319447 2.86426101,8.71879101 C2.29641801,10.0599465 2.0004,11.5073773 2.0004,12.9999 C2.0004,14.4924227 2.29641801,15.9398535 2.86445255,17.2814617 C2.97886737,17.5520618 3.105206,17.8198722 3.24326114,18.0848639 C3.49843661,18.5746638 3.30823594,19.1785857 2.81843605,19.4337611 C2.32863617,19.6889366 1.72471432,19.4987359 1.46953886,19.0089361 C1.3069485,18.6968499 1.1577722,18.3806286 1.02253899,18.060791 C0.350630427,16.4738491 0.0004,14.7613374 0.0004,12.9999 C0.0004,11.2384626 0.350630427,9.52595092 1.022176,7.93986743 C1.67397658,6.39641227 2.62195081,4.99313563 3.80729322,3.80779322 C4.99245952,2.62262692 6.39561344,1.67464646 7.93982282,1.02190618 C9.52736106,0.350383034 11.239768,-0.0001 13.0004,-0.0001 Z" id="Stroke-1"></path>
    <path d="M13,7 C13.5128358,7 13.9355072,7.38604019 13.9932723,7.88337887 L14,8 L14,13.914 C14,14.4662847 13.5522847,14.914 13,14.914 C12.4871642,14.914 12.0644928,14.5279598 12.0067277,14.0306211 L12,13.914 L12,8 C12,7.44771525 12.4477153,7 13,7 Z" id="Stroke-3"></path>
    <path d="M13,17 C13.5522847,17 14,17.4477153 14,18 C14,18.5522847 13.5522847,19 13,19 C12.4477153,19 12,18.5522847 12,18 C12,17.4477153 12.4477153,17 13,17 Z" id="Oval"></path>
  </g>
</svg>
