<svg viewBox="0 0 32 32" id="check_circle" xmlns="http://www.w3.org/2000/svg">
  <path d="M20.792 11.293a1 1 0 011.499 1.32l-.083.094-8 8.01a1 1 0 01-1.32.083l-.095-.083-3-3a1 1 0 011.32-1.497l.094.083 2.293 2.292 7.292-7.302z" />
  <path d="M10.943 4.018a13.071 13.071 0 0110.116 0 13.001 13.001 0 016.923 6.925 13.071 13.071 0 010 10.116 13.001 13.001 0 01-6.925 6.923 13.082 13.082 0 01-9.797.126l-.352-.141-.73-.34a1 1 0 01.736-1.857l.108.044.695.324a11.069 11.069 0 008.564 0 10.999 10.999 0 005.857-5.855 11.069 11.069 0 000-8.564 10.999 10.999 0 00-5.855-5.857 11.069 11.069 0 00-8.564 0 10.999 10.999 0 00-5.857 5.855 11.064 11.064 0 00-.004 8.555c.114.265.242.533.39.819a1 1 0 01-1.776.918 15.17 15.17 0 01-.454-.952 13.071 13.071 0 010-10.116 13.001 13.001 0 016.925-6.923z" />
</svg>
