<svg id="close" viewBox="0 0 32 32" xmlns="http://www.w3.org/2000/svg">
  <g transform="translate(4.000000, 4.000000)">
    <path d="M1.61289944,0.209704612 L1.70710678,0.292893219 L12,10.585 L22.2928932,0.292893219 C22.6834175,-0.0976310729 23.3165825,-0.0976310729 23.7071068,0.292893219 C24.0675907,0.65337718 24.0953203,1.22060824 23.7902954,1.61289944 L23.7071068,1.70710678 L13.415,12 L23.7071068,22.2928932 C24.0976311,22.6834175 24.0976311,23.3165825 23.7071068,23.7071068 C23.3466228,24.0675907 22.7793918,24.0953203 22.3871006,23.7902954 L22.2928932,23.7071068 L0.292893219,1.70710678 C-0.0976310729,1.31658249 -0.0976310729,0.683417511 0.292893219,0.292893219 C0.65337718,-0.0675907428 1.22060824,-0.0953202783 1.61289944,0.209704612 Z M9.03710678,14.9628932 C9.39759074,15.3233772 9.42532028,15.8906082 9.12029539,16.2828994 L9.03710678,16.3771068 L1.70710678,23.7071068 C1.31658249,24.0976311 0.683417511,24.0976311 0.292893219,23.7071068 C-0.0675907428,23.3466228 -0.0953202783,22.7793918 0.209704612,22.3871006 L0.292893219,22.2928932 L7.62289322,14.9628932 C8.01341751,14.5723689 8.64658249,14.5723689 9.03710678,14.9628932 Z"></path>
  </g>
</svg>
