<svg viewBox="0 0 32 32" id="close_circle" xmlns="http://www.w3.org/2000/svg">
  <g transform="translate(3.000100, 3.000100)">
    <path d="M18.0587558,1.0186246 C21.180146,2.33592043 23.66396,4.81973443 24.9820578,7.94303051 C26.3392882,11.1777028 26.3392882,14.8221776 24.9812558,18.0587558 C23.66396,21.180146 21.180146,23.66396 18.0568499,24.9820578 C14.9377016,26.2908157 11.4374998,26.3375571 8.25948573,25.1082786 L7.90773466,24.9664403 L7.17773466,24.6264403 C6.67708847,24.3932626 6.46026239,23.7983809 6.69344007,23.2977347 C6.90996221,22.8328489 7.43836186,22.6126856 7.91358819,22.7703007 L8.02214574,22.8134401 L8.7168499,23.1378226 C11.4565456,24.2873666 14.5433348,24.2873666 17.2811246,23.1386246 C19.9223009,22.0239897 22.0239897,19.9223009 23.1378226,17.2830305 C24.2873666,14.5433348 24.2873666,11.4565456 23.1386246,8.7187558 C22.0239897,6.0775795 19.9223009,3.97589073 17.2830305,2.86205781 C14.5433348,1.71251376 11.4565456,1.71251376 8.7187558,2.8612558 C6.0775795,3.97589073 3.97589073,6.0775795 2.86205781,8.7168499 C1.71251376,11.4565456 1.71251376,14.5433348 2.85749583,17.2723328 C2.97222803,17.5370994 3.1001747,17.8044165 3.24815785,18.0905173 C3.50189012,18.5810663 3.30991218,19.1844256 2.81936312,19.4381578 C2.32881406,19.6918901 1.72545483,19.4999122 1.47172256,19.0093631 C1.30367517,18.6844715 1.15620583,18.3763659 1.01782259,18.0568499 C-0.339407836,14.8221776 -0.339407836,11.1777028 1.0186246,7.9411246 C2.33592043,4.81973443 4.81973443,2.33592043 7.94303051,1.01782259 C11.1777028,-0.339407836 14.8221776,-0.339407836 18.0587558,1.0186246 Z M9.61283965,8.20964481 L9.70704698,8.29283342 L13,11.585 L16.2928334,8.29283342 C16.6833577,7.90230913 17.3165227,7.90230913 17.707047,8.29283342 C18.0675309,8.65331738 18.0952605,9.22054844 17.7902356,9.61283965 L17.707047,9.70704698 L14.415,13 L17.707047,16.2928334 C18.0975713,16.6833577 18.0975713,17.3165227 17.707047,17.707047 C17.346563,18.0675309 16.779332,18.0952605 16.3870408,17.7902356 L16.2928334,17.707047 L13,14.415 L9.70704698,17.707047 C9.31652269,18.0975713 8.68335771,18.0975713 8.29283342,17.707047 C7.93234946,17.346563 7.90461992,16.779332 8.20964481,16.3870408 L8.29283342,16.2928334 L11.585,13 L8.29283342,9.70704698 C7.90230913,9.31652269 7.90230913,8.68335771 8.29283342,8.29283342 C8.65331738,7.93234946 9.22054844,7.90461992 9.61283965,8.20964481 Z" id="Combined-Shape"></path>
  </g>
</svg>
