<svg viewBox="0 0 32 32" id="info_circle" xmlns="http://www.w3.org/2000/svg">
  <g transform="translate(2.999909, 2.999987)">
    <path d="M22.1935701,3.80777922 C26.696254,8.31046314 27.2746475,15.4119107 23.5599376,20.5838789 C19.8452276,25.7558471 12.9309725,27.4757812 7.22605195,24.6469641 C6.73125593,24.4016167 6.52903788,23.8016119 6.77438528,23.3068159 C7.01973268,22.8120198 7.61973747,22.6098018 8.11453349,22.8551492 C12.941774,25.2487637 18.7922975,23.7934348 21.9355136,19.4171541 C25.0787297,15.0408733 24.5893199,9.0319561 20.7793566,5.22199279 C16.9693933,1.41202947 10.9604761,0.922619604 6.5841953,4.06583573 C2.20791454,7.20905185 0.752585662,13.0595754 3.14620016,17.8868159 C3.39154756,18.3816119 3.18932951,18.9816167 2.69453349,19.2269641 C2.19973747,19.4723115 1.59973268,19.2700934 1.35438528,18.7752974 C-1.47443185,13.0703769 0.245502281,6.15612176 5.41747045,2.44141179 C10.5894386,-1.27329817 17.6908862,-0.694904691 22.1935701,3.80777922 Z M13.0002927,11.5310566 C13.5131286,11.5310566 13.9357999,11.9170968 13.993565,12.4144355 L14.0002927,12.5310566 L14.0002927,18.5910566 C14.0002927,19.1433414 13.5525775,19.5910566 13.0002927,19.5910566 C12.4874569,19.5910566 12.0647856,19.2050164 12.0070205,18.7076778 L12.0002927,18.5910566 L12.0002927,12.5310566 C12.0002927,11.9787719 12.448008,11.5310566 13.0002927,11.5310566 Z M13.0000909,7.00001288 C13.5523757,7.00001288 14.0000909,7.44772813 14.0000909,8.00001288 C14.0000909,8.55229763 13.5523757,9.00001288 13.0000909,9.00001288 C12.4478062,9.00001288 12.0000909,8.55229763 12.0000909,8.00001288 C12.0000909,7.44772813 12.4478062,7.00001288 13.0000909,7.00001288 Z" id="Combined-Shape"></path>
  </g>
</svg>
