<svg id="logout" viewBox="0 0 32 32" xmlns="http://www.w3.org/2000/svg">
  <path d="M4.00518 7.01961C4.11521 4.78112 5.96499 3 8.23077 3H14L14.1166 3.00673C14.614 3.06449 15 3.48716 15 4C15 4.55228 14.5523 5 14 5H8.23077L8.07146 5.0056C6.91379 5.08729 6 6.05232 6 7.23077V24.7692L6.0056 24.9285C6.08729 26.0862 7.05232 27 8.23077 27H14L14.1166 27.0067C14.614 27.0645 15 27.4872 15 28C15 28.5523 14.5523 29 14 29H8.23077L8.01961 28.9948C5.78112 28.8848 4 27.035 4 24.7692V7.23077L4.00518 7.01961ZM19.6262 8.62625C19.9867 8.26576 20.5539 8.23803 20.9462 8.54306L27.925 15.6194C28.0586 15.9444 28.0137 16.3256 27.7903 16.6129L27.7897 16.6136C27.7641 16.6465 27.7365 16.6777 27.7071 16.7071L21.0404 23.3738C20.6499 23.7643 20.0168 23.7643 19.6262 23.3738C19.2657 23.0133 19.238 22.4461 19.543 22.0538L19.6262 21.9596L24.5851 17H11C10.4477 17 10 16.5523 10 16C10 15.4872 10.386 15.0645 10.8834 15.0067L11 15H24.5851L19.6262 10.0405C19.2657 9.67998 19.238 9.11274 19.543 8.72045L19.6262 8.62625Z"/>
</svg>
