<svg id="reload" viewBox="0 0 32 32" xmlns="http://www.w3.org/2000/svg">
  <path d="M25.1612 10.6104C23.1796 6.88152 19.3001 4.5 15 4.5C8.64873 4.5 3.5 9.64873 3.5 16C3.5 22.3513 8.64873 27.5 15 27.5C19.2729 27.5 23.1318 25.1486 25.1253 21.4567C25.4454 20.8638 25.7129 20.2434 25.9243 19.6019C26.0972 19.0774 25.8121 18.5121 25.2876 18.3392C24.763 18.1663 24.1977 18.4514 24.0248 18.976C23.8504 19.5052 23.6297 20.0171 23.3654 20.5064C21.7178 23.5579 18.5306 25.5 15 25.5C9.75329 25.5 5.5 21.2467 5.5 16C5.5 10.7533 9.75329 6.5 15 6.5C18.5531 6.5 21.7573 8.46697 23.3951 11.5489C23.6133 11.9596 23.8011 12.3859 23.9567 12.8248L20.1913 12.8271L20.0757 12.8339C19.5827 12.8922 19.2 13.3183 19.2 13.8354C19.2 14.3923 19.6438 14.8437 20.1913 14.8437H26.4664C27.0139 14.8437 27.4578 14.3923 27.4578 13.8354V7.25122L27.4511 7.13363C27.3938 6.63217 26.9748 6.24292 26.4664 6.24292C25.9189 6.24292 25.4751 6.69435 25.4751 7.25122L25.4753 11.2348L25.4714 11.2398C25.3744 11.0269 25.271 10.817 25.1612 10.6104Z"/>
</svg>
